<svg width="402" height="402" viewBox="0 0 402 402" fill="none" xmlns="http://www.w3.org/2000/svg">
<rect width="402" height="402" rx="201" fill="#F24438"/>
<path d="M166.53 178.9C185.408 176.618 186.373 205.197 170.025 207.366C153.023 209.623 148.719 181.049 166.53 178.9ZM167.368 184.179C162.206 189.355 171.258 198.212 175.421 191.081C178.667 185.519 171.838 179.689 167.368 184.179ZM166.008 190.788C166.008 189.594 165.038 188.624 163.844 188.624C162.65 188.624 161.68 189.594 161.68 190.788C161.68 191.982 162.65 192.952 163.844 192.952C165.038 192.952 166.008 191.982 166.008 190.788Z" fill="black"/>
<path d="M162.26 160.177C165.604 160.055 169.211 160.601 168.909 164.837C168.572 169.497 163.576 168.347 160.53 168.629C157.449 168.912 153.725 170.165 151.683 172.597C149.416 175.293 148.587 183.287 143.162 180.079C139.565 177.954 141.788 172.953 143.342 170.17C147.237 163.194 154.563 160.46 162.27 160.182L162.26 160.177Z" fill="black"/>
<path d="M229.941 166.733C248.927 164.301 250.185 193.542 232.812 195.234C216.483 196.823 212.462 168.975 229.941 166.733ZM233.217 170.672C227.377 171.88 228.762 182.823 235.698 181.361C241.684 180.099 240.933 169.073 233.217 170.672ZM229.498 178.636C229.498 177.457 228.542 176.501 227.363 176.501C226.183 176.501 225.228 177.457 225.228 178.636C225.228 179.816 226.183 180.771 227.363 180.771C228.542 180.771 229.498 179.816 229.498 178.636Z" fill="black"/>
<path d="M235.542 146.046C243.019 145.695 252.061 149.41 254.591 157.033C255.766 160.577 252.758 163.302 249.171 162.127C247.26 161.498 246.914 159.66 245.788 158.281C243.58 155.571 240.29 154.133 236.775 154.152C233.417 154.172 226.641 157.555 224.926 153.187C222.571 147.187 231.667 146.231 235.542 146.051V146.046Z" fill="black"/>
<path d="M267.328 212.865C273.66 212.665 282.628 211.28 286.06 218.231C289.126 224.446 285.119 235.136 283.014 241.497C274.771 266.405 262.853 282.335 236.268 288.403C216.327 292.951 185.54 294.92 166.101 288.242C156.328 284.884 143.8 272.786 139.199 263.553C131.117 247.331 142.816 242.243 155.309 236.364C188.767 220.629 230.497 214.044 267.328 212.869V212.865ZM268.644 219.435C233.465 220.59 193.675 226.449 161.451 240.858C157.892 242.447 146.34 247.756 144.439 250.466C141.568 254.56 144.478 260.039 147.1 263.534C151.799 263.524 160.603 263.617 163.81 259.654C165.95 257.007 165.014 254.906 165.287 251.928C166.671 236.812 189.956 231.178 199.627 242.223C202.508 245.513 202.488 249.208 207.836 249.788C216.263 250.7 236.814 245.801 245.851 243.768C256.097 241.463 265.061 237.851 273.689 231.845C274.907 230.997 279.504 227.707 280.113 226.771C280.976 225.45 280.84 222.36 279.962 221.029C278.134 218.26 271.588 219.338 268.634 219.43L268.644 219.435ZM152.472 270.163L158.55 275.978C175.255 265.269 196.702 263.631 215.069 271.031C229.337 260.741 248.201 259.683 264.983 263.188C270.779 255.828 274.708 246.644 277.008 237.631C273.143 240.137 269.165 242.545 264.973 244.485C253.947 249.579 240.743 251.787 228.776 253.966C221.406 255.306 209.361 258.06 202.425 255.204C196.434 252.737 196.585 246.844 191.682 244.261C187.08 241.838 179.286 243.344 175.318 246.513C170.132 250.651 173.003 254.858 171.214 260.156C168.587 267.94 159.637 269.564 152.472 270.168V270.163ZM224.667 275.51C225.807 276.895 224.789 278.801 222.966 278.732C221.966 278.693 217.024 276.212 215.488 275.661C201.879 270.748 188.036 270.075 174.319 275.086C172.998 275.569 164.331 279.444 164.307 280.185C169.679 283.022 176.22 284.192 182.235 284.937C202.625 287.458 238.525 285.469 255.434 273.068C256.589 272.22 259.036 270.334 259.933 269.349C260.338 268.906 260.235 268.784 259.689 268.594C257.686 267.897 252.841 267.424 250.56 267.209C241.742 266.371 231.628 267.453 223.463 270.997C222.668 271.343 220.738 272.162 220.168 272.634C219.812 272.927 219.724 273.005 220.158 273.293C221.128 273.936 223.892 274.579 224.667 275.515V275.51Z" fill="black"/>
<path d="M74.6523 145.198C81.3058 149.375 85.9365 154.718 88.5346 161.235C91.1326 167.835 91.2399 174.542 88.8612 181.361C86.6092 187.815 83.2117 192.065 78.6737 194.098C74.1356 196.135 68.4569 195.965 61.6376 193.581C55.4276 191.412 49.5881 187.659 44.1287 182.321C38.6694 176.984 34.7504 171.208 32.3766 164.988C30.7144 160.625 30.5584 156.511 31.9037 152.651C32.7275 150.297 34.6919 147.391 37.8066 143.931C41.5014 139.826 44.4846 138.174 46.7658 138.973C48.077 139.432 49.0714 140.338 49.7587 141.693C50.4411 143.048 50.5288 144.452 50.0219 145.91C49.7684 146.636 48.5206 148.006 46.2832 150.014C44.0459 152.022 42.5641 154.06 41.8426 156.121C41.0822 158.305 42.4032 162.078 45.8153 167.435C50.7677 175.239 57.2409 180.533 65.2252 183.316C69.2758 184.729 72.2394 185.1 74.1112 184.417C76.0805 183.691 77.6939 181.517 78.9564 177.9C80.253 174.186 80.3358 170.555 79.2098 167.001C78.0205 163.238 75.5394 159.894 71.7666 156.97C70.2361 162.751 69.6804 168.059 70.0898 172.885C70.1678 173.757 70.0752 174.566 69.812 175.317C69.2855 176.823 68.2912 177.876 66.8289 178.48C65.5225 179.031 64.2357 179.085 62.9732 178.646C59.2589 177.35 58.1963 172.051 59.7853 162.751C60.6871 157.511 62.2908 151.593 64.5964 144.993C65.1033 143.536 66.0051 142.483 67.2919 141.83C68.5836 141.177 69.9192 141.094 71.3036 141.576C73.073 142.195 74.1941 143.404 74.6523 145.198Z" fill="black"/>
<path d="M65.9956 117.911C65.0694 119.271 63.807 120.139 62.213 120.514C60.6191 120.89 59.1665 120.626 57.8456 119.729C56.5295 118.833 55.7544 117.57 55.5205 115.952C55.2865 114.333 55.6375 112.842 56.5636 111.482C57.4897 110.122 58.7473 109.259 60.3364 108.899C61.9254 108.533 63.3731 108.801 64.6892 109.698C66.0053 110.595 66.7852 111.852 67.0241 113.461C67.2629 115.07 66.9217 116.556 65.9907 117.916L65.9956 117.911ZM91.1914 131.131C92.4002 131.954 94.3695 133.246 97.0943 134.996C99.8191 136.746 101.788 138.038 102.997 138.862C104.23 139.7 104.962 140.806 105.191 142.181C105.42 143.556 105.103 144.877 104.235 146.149C103.368 147.421 102.251 148.201 100.891 148.488C99.5315 148.771 98.2349 148.493 97.0017 147.655C95.7928 146.831 93.8235 145.539 91.0988 143.79C88.374 142.04 86.4047 140.748 85.1958 139.924C83.3046 138.637 81.0087 136.912 78.3083 134.762C75.6079 132.608 73.312 130.887 71.4208 129.6C70.1876 128.762 69.4564 127.655 69.2273 126.281C68.9982 124.911 69.315 123.585 70.1827 122.313C71.0503 121.041 72.1666 120.261 73.5265 119.973C74.8865 119.69 76.1831 119.968 77.4163 120.807C79.3076 122.098 81.6034 123.819 84.3038 125.969C87.0043 128.123 89.3001 129.844 91.1914 131.131Z" fill="black"/>
<path d="M108.1 93.8655C107.71 94.2408 107.242 94.6698 106.687 95.1475C106.131 95.63 105.663 96.059 105.273 96.4294C104.513 97.1606 103.708 98.0818 102.851 99.1981C110.396 106.349 115.28 111.067 117.493 113.358C117.727 113.597 118.166 114.041 118.819 114.674C119.472 115.313 119.994 115.834 120.389 116.244C124.498 120.494 125.209 123.916 122.529 126.505C121.51 127.484 120.33 128.02 118.985 128.108C117.527 128.23 116.319 127.791 115.353 126.792C114.71 126.124 113.774 125.101 112.541 123.716C111.313 122.332 110.372 121.308 109.733 120.641C107.574 118.403 102.782 113.777 95.3586 106.758C94.1595 107.811 92.278 109.332 89.7189 111.326C87.1598 113.319 84.8396 113.241 82.768 111.097C81.7687 110.063 81.2716 108.845 81.2764 107.446C81.2813 106.047 81.8419 104.809 82.9484 103.741C83.6308 103.083 85.3124 101.674 87.9836 99.5198C87.3938 98.9446 86.3994 98.0136 85.0054 96.7121C83.7868 95.6008 82.8655 94.7234 82.2416 94.0751C81.2423 93.0417 80.789 91.8134 80.8865 90.3998C80.984 88.9813 81.5689 87.7579 82.6413 86.7196C85.3758 84.0777 88.9682 85.0574 93.4137 89.6589L95.5536 91.984C96.5382 90.7117 97.3912 89.7271 98.1126 89.0301C100.238 86.9779 101.822 85.7155 102.87 85.2427C104.849 84.3311 106.677 84.7455 108.359 86.4808C109.377 87.5336 109.865 88.762 109.821 90.1609C109.777 91.5599 109.202 92.798 108.095 93.8655H108.1Z" fill="black"/>
<path d="M149.694 57.5122C147.632 58.5651 145.556 58.258 143.46 56.5861C142.475 55.7915 141.7 55.4065 141.139 55.4357C140.715 55.4503 139.77 55.8354 138.302 56.5812C135.417 58.0533 133.233 62.0015 131.751 68.4162C129.67 77.39 130.026 84.6139 132.824 90.083C134.101 92.5787 136.026 94.2896 138.61 95.2206C141.193 96.1516 143.65 96.02 145.985 94.8258C148.251 93.6657 150.245 91.8963 151.97 89.5127C152.575 88.6548 153.74 86.6465 155.47 83.4782C156.645 81.3773 157.693 80.0904 158.609 79.6225C159.984 78.9206 161.407 78.828 162.884 79.3447C164.259 79.8272 165.253 80.6754 165.872 81.8891C166.564 83.2393 166.569 84.7211 165.896 86.3394C162.314 94.8696 157.264 100.797 150.742 104.131C145.595 106.763 140.281 107.109 134.817 105.169C129.582 103.283 125.712 99.8952 123.206 94.9964C119.287 87.3289 118.639 77.7897 121.262 66.369C123.499 56.6787 127.589 50.3176 133.54 47.2759C134.549 46.7593 135.475 46.3303 136.323 45.9842C137.172 45.6381 137.937 45.3749 138.629 45.1946C139.131 43.6933 140.096 42.5819 141.515 41.8556C143.85 40.6614 145.975 41.2658 147.895 43.664C149.265 45.3896 150.61 47.5294 151.917 50.0934C152.502 51.2388 152.701 52.4477 152.516 53.7248C152.277 55.4065 151.337 56.6689 149.689 57.5073L149.694 57.5122Z" fill="black"/>
<path d="M185.681 84.7505C186.788 89.5079 185.613 92.2863 182.157 93.0906C180.656 93.4416 179.306 93.2515 178.107 92.53C176.907 91.8038 176.137 90.6924 175.786 89.1911L163.708 37.2494C163.371 35.7968 163.62 34.4856 164.453 33.3158C165.258 32.2336 166.398 31.5171 167.875 31.1759C169.352 30.8298 170.668 30.9955 171.828 31.6633C172.988 32.3311 173.734 33.3889 174.071 34.8414L185.676 84.7554L185.681 84.7505Z" fill="black"/>
<path d="M226.753 90.1027C225.569 90.1027 223.692 88.967 221.119 86.6809C218.755 87.8166 216.673 88.6745 214.879 89.2546C213.081 89.8346 211.55 90.1271 210.293 90.132C204.097 90.1417 199.447 88.4942 196.347 85.1845C193.242 81.8747 191.687 76.9175 191.672 70.3126C191.663 64.1173 193.939 58.8139 198.506 54.3928C203.074 49.9766 208.543 47.7588 214.918 47.749C217.361 47.749 220.188 48.4266 223.405 49.7963C227.29 51.4438 229.235 53.3595 229.239 55.5481C229.239 56.4645 228.947 57.2687 228.357 57.956C228.104 58.9748 227.904 60.2519 227.767 61.7922C227.631 63.3325 227.563 65.1312 227.563 67.193C227.572 72.0528 227.928 75.5526 228.625 77.6876C228.703 77.9167 229.298 79.2377 230.404 81.6554C231.413 83.844 231.915 85.087 231.915 85.3941C231.915 86.7443 231.399 87.8654 230.361 88.7574C229.322 89.6494 228.118 90.0979 226.758 90.1027H226.753ZM217.141 64.0978C217.141 63.274 217.195 62.3284 217.307 61.2609C217.419 60.1934 217.59 59.004 217.819 57.6928C217.302 57.4393 216.849 57.2492 216.449 57.1371C216.049 57.0201 215.708 56.9665 215.425 56.9665C211.93 56.9714 208.874 58.346 206.257 61.0903C203.639 63.8346 202.333 67.0029 202.342 70.6002C202.347 74.0464 202.971 76.6348 204.209 78.3652C205.447 80.0956 207.3 80.9632 209.766 80.9583C211.36 80.9583 212.871 80.6903 214.295 80.1589C215.718 79.6276 217.063 78.8477 218.321 77.8192C217.541 71.7019 217.141 67.1297 217.136 64.0929L217.141 64.0978Z" fill="black"/>
<path d="M249.97 74.7677C249.644 76.1959 249.166 78.5015 248.537 81.6796C247.908 84.8577 247.431 87.1633 247.104 88.5915C246.773 90.044 246.012 91.131 244.823 91.8476C243.634 92.5641 242.283 92.7542 240.782 92.413C239.276 92.0718 238.145 91.3211 237.38 90.1562C236.614 88.9961 236.4 87.6848 236.731 86.2323C237.058 84.8041 237.536 82.4985 238.164 79.3204C238.793 76.1422 239.271 73.8366 239.598 72.4084C240.104 70.176 240.865 67.4122 241.879 64.1073C242.893 60.8074 243.653 58.0387 244.16 55.8062C244.491 54.3536 245.252 53.2667 246.441 52.5501C247.631 51.8336 248.981 51.6435 250.482 51.9847C251.988 52.3259 253.119 53.0765 253.884 54.2415C254.65 55.4016 254.864 56.7129 254.533 58.1654C254.026 60.3979 253.265 63.1617 252.251 66.4665C251.238 69.7665 250.477 72.5352 249.97 74.7677ZM253.041 46.4815C251.437 46.1159 250.17 45.2629 249.234 43.9175C248.298 42.5722 248.011 41.1245 248.367 39.5696C248.722 38.0146 249.61 36.835 251.033 36.0259C252.456 35.2167 253.967 34.9925 255.576 35.3581C257.179 35.7237 258.442 36.5767 259.363 37.9171C260.284 39.2625 260.567 40.7102 260.216 42.2651C259.865 43.8201 258.983 45.0045 257.569 45.8137C256.161 46.6277 254.65 46.8519 253.046 46.4864L253.041 46.4815Z" fill="black"/>
<path d="M278.402 66.8954C283.993 64.8823 288.297 64.7263 291.32 66.4275C294.766 68.3724 296.56 71.1069 296.696 74.636C298.743 74.1973 300.766 74.1388 302.765 74.4703C304.763 74.7969 306.723 75.5036 308.653 76.5906C313.04 79.062 314.79 82.9274 313.898 88.1771C313.708 89.2495 312.479 92.5543 310.213 98.0965C308.794 102.079 306.196 108.576 302.414 117.599C301.785 118.925 300.756 119.734 299.323 120.017C297.89 120.304 296.53 120.08 295.229 119.349C292.655 117.896 291.861 115.771 292.85 112.963C293.747 110.429 295.165 106.939 297.115 102.488C299.265 97.6237 300.737 94.1434 301.531 92.0523C303.184 87.7043 303.54 85.2622 302.599 84.7309C302.082 84.4384 300.62 84.2922 298.202 84.2873C295.785 84.2873 293.942 84.4092 292.675 84.6724C291.237 87.2266 289.467 91.0676 287.376 96.2004C285.241 101.46 283.486 105.306 282.112 107.748C281.39 109.025 280.357 109.844 279.002 110.2C277.647 110.56 276.302 110.361 274.956 109.6C273.611 108.845 272.743 107.792 272.348 106.451C271.954 105.106 272.114 103.8 272.836 102.522C274.274 99.9683 276.116 96.059 278.363 90.7898C280.61 85.5206 282.453 81.6064 283.891 79.0571C284.7 77.624 285.217 76.4103 285.451 75.4208C282.009 75.4598 277.993 76.4834 273.406 78.5014C273.206 78.594 272.885 78.7256 272.436 78.8865C269.799 83.3612 267.752 86.8854 266.304 89.4591C265.953 90.0879 265.451 90.9214 264.808 91.9596C264.164 92.9979 263.696 93.7729 263.404 94.2896C262.721 95.4985 261.693 96.1711 260.318 96.3125C259.056 96.4587 257.764 96.1565 256.443 95.4156C254.537 94.3432 253.718 92.7883 253.982 90.7508C254.142 89.3665 254.908 87.4557 256.287 85.0136L263.326 72.5156C263.955 71.3945 264.837 69.7324 265.963 67.5194C267.089 65.3064 267.971 63.6442 268.6 62.5231C269.721 60.5295 271.096 58.9307 272.724 57.7218C274.732 56.1961 276.531 55.8842 278.125 56.7811C279.377 57.4878 280.225 58.6041 280.659 60.1346C281.098 61.6652 280.986 63.0105 280.328 64.1755C280.591 63.7076 279.948 64.6142 278.398 66.8954H278.402Z" fill="black"/>
<path d="M78.2982 290.947C76.6457 287.993 76.0023 285.298 76.3679 282.866C76.6604 280.823 77.5231 279.405 78.9562 278.6C79.6874 278.191 80.4185 278.074 81.1497 278.245C81.8808 278.415 82.4609 278.893 82.8996 279.673C83.4845 280.721 83.3773 281.788 82.5828 282.875C81.5201 284.338 81.6469 286.239 82.9532 288.578C84.0695 290.582 85.5903 292.273 87.5108 293.657C89.4898 295.1 91.0204 295.524 92.0879 294.925C93.5551 294.106 94.179 292.96 93.9694 291.493C93.828 290.445 93.0579 288.608 91.6687 285.98C90.5914 283.943 89.9626 281.925 89.7823 279.936C89.5434 277.245 90.3379 275.413 92.161 274.438C94.4471 273.204 97.206 273.253 100.428 274.579C103.65 275.91 106.068 278.011 107.671 280.882C108.31 282.022 108.831 283.577 109.246 285.546C109.758 287.993 109.587 289.456 108.739 289.929C108.134 290.265 107.481 290.357 106.784 290.197C105.999 290.021 105.405 289.568 104.995 288.837C104.688 288.291 104.347 287.408 103.977 286.19C103.601 284.971 103.26 284.084 102.948 283.524C102.1 282.027 100.94 280.804 99.4775 279.853C97.9761 278.859 96.8014 278.6 95.9533 279.073C95.5097 279.322 95.266 279.736 95.2172 280.321C95.1685 280.906 95.3245 281.652 95.6852 282.568C96.4358 284.104 97.1816 285.634 97.9274 287.155C99.1704 289.851 99.5847 292.297 99.1704 294.501C98.6975 296.933 97.2255 298.839 94.759 300.218C91.7564 301.895 88.5247 301.456 85.0687 298.897C82.4365 296.948 80.1846 294.296 78.3128 290.947H78.2982Z" fill="black"/>
<path d="M109.027 302.237C110.386 302.354 111.61 302.68 112.692 303.216C113.774 303.752 114.73 304.503 115.553 305.468C117.035 307.199 117.615 308.861 117.294 310.455C117.05 311.644 116.226 312.95 114.822 314.359C113.618 315.475 112.414 316.601 111.215 317.737C109.724 319.292 108.817 320.247 108.5 320.589C107.496 321.69 106.662 322.704 105.995 323.625C105.824 323.859 105.658 324.045 105.497 324.181C104.932 324.669 104.279 324.854 103.538 324.737C102.802 324.62 102.183 324.279 101.691 323.699C100.813 322.675 100.755 321.578 101.505 320.408C102.119 319.463 103.08 318.254 104.396 316.777C105.668 315.373 106.765 314.276 107.686 313.487C107.94 313.272 108.334 312.955 108.866 312.541C109.397 312.132 109.792 311.815 110.045 311.595C110.796 310.952 111.22 310.572 111.327 310.445C111.805 309.88 111.859 309.378 111.488 308.939C110.528 307.813 109.139 307.238 107.325 307.213C106.409 307.189 104.883 307.394 102.739 307.823C99.073 310.962 96.7138 312.673 95.6609 312.96C94.491 313.277 93.5405 313.004 92.8045 312.141C92.3171 311.576 92.0782 310.908 92.0831 310.143C92.0831 309.378 92.3658 308.754 92.9215 308.281C93.1116 308.115 93.4284 307.94 93.8671 307.759C94.1498 307.637 95.5683 306.531 98.1225 304.43C100.116 302.636 103.509 299.751 108.31 295.763L108.836 295.364C110.084 294.403 110.908 293.75 111.313 293.399C111.625 293.131 112.049 292.688 112.58 292.064C113.111 291.445 113.53 291.001 113.847 290.728C114.422 290.236 115.076 290.036 115.802 290.133C116.528 290.231 117.142 290.577 117.644 291.162C118.502 292.166 118.541 293.297 117.761 294.559C117.318 295.271 116.47 296.163 115.212 297.24C114.198 298.108 113.145 298.956 112.049 299.79C111.006 300.579 109.997 301.388 109.022 302.222L109.027 302.237Z" fill="black"/>
<path d="M119.765 326.048C119.258 326.613 118.463 327.54 117.381 328.822C116.299 330.104 115.504 331.03 114.997 331.595C114.481 332.17 113.867 332.472 113.145 332.502C112.424 332.526 111.766 332.277 111.171 331.741C110.576 331.21 110.25 330.581 110.196 329.865C110.142 329.148 110.372 328.5 110.888 327.92C111.395 327.354 112.19 326.428 113.272 325.146C114.354 323.864 115.153 322.938 115.655 322.373C116.445 321.49 117.483 320.423 118.775 319.18C120.062 317.937 121.105 316.874 121.895 315.987C122.411 315.412 123.026 315.11 123.747 315.085C124.468 315.061 125.126 315.31 125.721 315.846C126.316 316.377 126.642 317.006 126.696 317.723C126.75 318.439 126.52 319.087 126.004 319.667C125.214 320.555 124.171 321.617 122.884 322.86C121.592 324.103 120.554 325.166 119.765 326.053V326.048ZM128.261 313.984C127.622 313.414 127.261 312.707 127.179 311.863C127.091 311.02 127.325 310.289 127.876 309.67C128.426 309.056 129.123 308.739 129.976 308.729C130.825 308.72 131.565 308.997 132.204 309.568C132.838 310.138 133.198 310.84 133.276 311.683C133.359 312.522 133.12 313.253 132.57 313.867C132.019 314.486 131.322 314.798 130.479 314.813C129.635 314.827 128.894 314.549 128.261 313.984Z" fill="black"/>
<path d="M126.121 344.205C125.175 343.557 124.259 342.762 123.367 341.826L118.726 348.533C118.288 349.172 117.712 349.547 116.996 349.674C116.279 349.796 115.592 349.63 114.934 349.177C114.276 348.724 113.876 348.144 113.735 347.427C113.594 346.715 113.745 346.043 114.183 345.404C114.539 344.887 115.958 342.85 118.444 339.287C120.296 336.645 121.787 334.476 122.923 332.779C124.522 330.386 125.853 328.29 126.91 326.496C128.373 324.02 129.031 322.884 128.894 323.079C129.523 322.168 130.259 321.529 131.112 321.159C132.092 320.749 132.979 320.818 133.783 321.368C134.398 321.793 134.768 322.353 134.9 323.06C135.031 323.767 134.895 324.405 134.495 324.99L134.363 325.146C135.387 325.234 136.338 325.434 137.22 325.741C138.102 326.048 138.916 326.457 139.662 326.974C142.187 328.709 143.293 331.054 142.986 333.993C142.742 336.206 141.738 338.595 139.969 341.163C138.312 343.566 136.255 345.087 133.798 345.726C131.156 346.413 128.597 345.911 126.131 344.21L126.121 344.205ZM136.63 331.366C135.938 330.888 135.124 330.571 134.188 330.401C133.252 330.235 132.199 330.225 131.029 330.371C129.606 332.726 128.11 335.036 126.545 337.308C127.3 338.297 128.168 339.131 129.148 339.803C130.279 340.583 131.424 340.778 132.579 340.393C133.627 340.047 134.573 339.257 135.421 338.029C136.44 336.547 137.083 335.475 137.342 334.812C137.946 333.252 137.707 332.102 136.635 331.361L136.63 331.366Z" fill="black"/>
<path d="M144.994 356.23C144.19 355.84 143.62 355.251 143.274 354.466C142.928 353.681 142.908 352.979 143.21 352.355C143.518 351.722 144.093 351.293 144.926 351.068C145.76 350.844 146.579 350.927 147.383 351.322C148.236 351.736 148.816 352.316 149.133 353.067C149.45 353.813 149.44 354.534 149.099 355.231C148.792 355.865 148.226 356.289 147.412 356.498C146.598 356.708 145.789 356.62 144.985 356.225L144.994 356.23Z" fill="black"/>
<path d="M188.894 352.072C188.046 354.149 186.832 357.288 185.253 361.49C184.824 362.957 184.405 364.414 183.995 365.872C183.235 367.69 182.123 368.514 180.666 368.338C179.754 368.231 179.067 367.836 178.609 367.154C178.219 366.574 178.068 365.916 178.156 365.189C178.409 363.045 179.169 360.486 180.446 357.507C182.352 353.047 183.386 350.571 183.551 350.084C184.175 348.09 184.804 346.096 185.438 344.103C186.364 341.368 187.227 339.57 188.031 338.721C188.835 337.868 189.766 337.508 190.824 337.63C192.028 337.771 192.842 338.483 193.271 339.769C193.666 340.983 193.958 343.406 194.153 347.037C194.329 350.561 194.763 354.383 195.445 358.502C197.414 354.748 199.325 350.595 201.172 346.048L202.82 341.612C203.756 339.803 204.975 338.985 206.471 339.16C207.914 339.331 208.859 340.554 209.303 342.835C209.488 343.757 209.605 345.448 209.654 347.91C209.761 353.637 210.161 358.585 210.853 362.747C211.55 366.973 211.882 369.269 211.838 369.625C211.745 370.405 211.36 371.024 210.673 371.482C210.034 371.892 209.352 372.053 208.621 371.965C207.178 371.794 206.227 370.639 205.769 368.489L205.218 363.556C204.862 361.1 204.575 357.595 204.355 353.047C203.551 354.753 202.24 357.424 200.417 361.061L198.799 364.575C198.141 365.96 197.492 367.086 196.854 367.948C196.006 369.099 194.958 369.596 193.7 369.45C192.457 369.303 191.589 368.455 191.097 366.91L190.42 363.089C189.786 359.579 189.274 355.909 188.889 352.082L188.894 352.072Z" fill="black"/>
<path d="M228.801 369.616C225.632 369.962 222.961 369.489 220.782 368.197C218.374 366.769 217.004 364.541 216.673 361.504C216.307 358.151 216.883 355.221 218.389 352.711C220.07 349.928 222.576 348.353 225.9 347.993C228.206 347.739 230.161 347.905 231.764 348.48C233.87 349.245 235.04 350.659 235.264 352.726C235.425 354.183 234.747 355.563 233.241 356.869C232.554 357.464 231.145 358.385 229.015 359.623L222.639 363.313C223.351 363.932 224.175 364.366 225.115 364.614C226.056 364.863 227.104 364.921 228.274 364.795C230.048 364.6 231.516 364.073 232.666 363.211C233.694 362.44 234.543 362.021 235.206 361.948C236.585 361.797 237.345 362.392 237.492 363.732C237.657 365.243 236.682 366.593 234.577 367.788C232.807 368.782 230.882 369.396 228.805 369.62L228.801 369.616ZM226.432 352.799C225.198 352.935 224.189 353.457 223.405 354.373C222.62 355.29 222.049 356.601 221.699 358.297C223.127 357.483 224.545 356.679 225.959 355.884C227.66 354.88 229 353.978 229.99 353.174C229.049 352.77 227.86 352.643 226.432 352.799Z" fill="black"/>
<path d="M256.58 347.939C257.009 349.938 256.39 351.166 254.718 351.629C253.099 352.078 252.061 351.468 251.598 349.796L250.964 347.876C248.201 349.138 246.543 351.195 245.993 354.042L248.693 363.727C248.898 364.459 248.815 365.136 248.444 365.755C248.079 366.374 247.508 366.793 246.738 367.003C245.944 367.222 245.252 367.139 244.676 366.745C244.135 366.399 243.77 365.862 243.57 365.141L240.075 352.521C239.963 352.121 239.812 351.527 239.622 350.727C239.432 349.928 239.276 349.333 239.168 348.934C238.969 348.212 239.017 347.554 239.315 346.955C239.612 346.355 240.158 345.941 240.952 345.721C242.381 345.327 243.429 345.824 244.106 347.213C245.91 344.888 248.201 343.343 250.974 342.572C253.543 341.861 255.303 343.216 256.248 346.633C256.429 347.286 256.541 347.72 256.585 347.929L256.58 347.939Z" fill="black"/>
<path d="M277.822 341.364C278.602 344.449 279.66 347.598 280.996 350.81C282.648 354.788 283.277 357.932 282.887 360.242C282.365 363.328 280.084 365.789 276.038 367.617C271.315 369.752 268.527 369.884 267.684 368.017C267.381 367.349 267.347 366.71 267.586 366.106C267.825 365.502 268.288 365.043 268.98 364.727C269.526 364.478 270.355 364.229 271.471 363.976C272.582 363.722 273.538 363.415 274.327 363.06C276.136 362.241 277.223 361.085 277.588 359.589C277.925 358.136 277.632 356.196 276.716 353.774C276.384 354.685 275.897 355.475 275.263 356.143C274.63 356.811 273.85 357.352 272.928 357.771C270.511 358.863 268.19 358.965 265.968 358.073C263.745 357.181 262.078 355.514 260.971 353.057C259.48 349.752 259.28 346.623 260.372 343.674C261.508 340.618 263.852 338.283 267.411 336.674C268.551 336.158 269.599 335.855 270.55 335.758C271.5 335.665 272.363 335.787 273.128 336.128C274.751 335.612 275.936 336.177 276.677 337.815C277.042 338.629 277.423 339.809 277.817 341.359L277.822 341.364ZM269.107 340.915C267.055 341.841 265.763 343.24 265.227 345.102C264.759 346.789 264.968 348.612 265.856 350.566C266.509 352.009 267.274 352.974 268.151 353.457C269.029 353.94 270.013 353.935 271.105 353.437C272.1 352.989 272.841 351.956 273.328 350.347C273.781 348.826 273.835 347.5 273.484 346.37C273.187 345.097 272.636 343.162 271.822 340.559C271.3 340.501 270.808 340.506 270.355 340.564C269.896 340.623 269.482 340.74 269.107 340.91V340.915Z" fill="black"/>
<path d="M297.081 344.273C294.439 346.053 291.856 346.881 289.326 346.75C286.533 346.608 284.281 345.273 282.575 342.743C280.688 339.945 279.83 337.089 279.996 334.159C280.186 330.913 281.668 328.354 284.442 326.482C286.367 325.185 288.171 324.42 289.857 324.181C292.08 323.874 293.766 324.581 294.931 326.306C295.75 327.525 295.799 329.06 295.073 330.913C294.746 331.761 293.927 333.228 292.616 335.319L288.692 341.553C289.609 341.773 290.54 341.768 291.485 341.553C292.431 341.334 293.391 340.895 294.361 340.242C295.843 339.243 296.891 338.093 297.51 336.796C298.061 335.636 298.616 334.871 299.167 334.495C300.318 333.72 301.268 333.891 302.019 335.007C302.867 336.265 302.638 337.917 301.327 339.955C300.225 341.661 298.807 343.099 297.071 344.269L297.081 344.273ZM287.147 330.498C286.118 331.19 285.47 332.126 285.202 333.301C284.934 334.476 285.041 335.899 285.524 337.571C286.406 336.187 287.288 334.812 288.171 333.447C289.209 331.766 289.974 330.342 290.471 329.172C289.448 329.25 288.341 329.694 287.147 330.498Z" fill="black"/>
<path d="M315.506 331.073C314.853 331.683 314.097 332.004 313.239 332.043C312.386 332.082 311.724 331.848 311.251 331.342C310.768 330.825 310.578 330.138 310.671 329.275C310.763 328.417 311.139 327.681 311.792 327.076C312.484 326.433 313.239 326.097 314.049 326.072C314.863 326.048 315.53 326.316 316.057 326.881C316.539 327.398 316.73 328.076 316.632 328.914C316.535 329.748 316.159 330.474 315.506 331.078V331.073Z" fill="black"/>
<path d="M328.194 275.885C327.595 276.924 326.6 277.372 325.221 277.236C324.568 277.167 324.124 277.216 323.885 277.387C323.705 277.513 323.398 277.947 322.974 278.683C322.13 280.136 322.291 282.471 323.451 285.683C325.07 290.177 327.258 293.224 330.012 294.818C331.27 295.544 332.591 295.749 333.98 295.427C335.369 295.105 336.403 294.355 337.085 293.18C337.748 292.039 338.119 290.704 338.201 289.183C338.221 288.642 338.167 287.438 338.031 285.571C337.953 284.323 338.045 283.47 338.313 283.007C338.713 282.315 339.308 281.871 340.098 281.681C340.829 281.506 341.501 281.593 342.116 281.949C342.798 282.344 343.217 282.987 343.378 283.879C344.216 288.603 343.685 292.605 341.784 295.89C340.283 298.483 338.065 300.131 335.14 300.823C332.328 301.476 329.691 301.086 327.219 299.658C323.354 297.42 320.39 293.448 318.319 287.735C316.569 282.885 316.559 278.961 318.294 275.963C318.587 275.456 318.869 275.008 319.142 274.618C319.415 274.228 319.674 273.897 319.922 273.629C319.722 272.834 319.825 272.078 320.239 271.362C320.922 270.187 322.018 269.851 323.525 270.353C324.607 270.719 325.796 271.274 327.088 272.02C327.663 272.356 328.092 272.824 328.37 273.434C328.74 274.233 328.682 275.047 328.204 275.876L328.194 275.885Z" fill="black"/>
<path d="M349.306 272.556C351.65 273.512 352.474 274.842 351.782 276.544C351.479 277.284 350.997 277.801 350.329 278.089C349.661 278.376 348.959 278.371 348.219 278.069L322.618 267.623C321.902 267.331 321.424 266.834 321.175 266.127C320.956 265.464 320.995 264.767 321.292 264.036C321.59 263.31 322.053 262.798 322.682 262.51C323.31 262.223 323.983 262.223 324.7 262.51L349.301 272.551L349.306 272.556Z" fill="black"/>
<path d="M360.282 250.407C360.127 250.997 359.303 251.786 357.811 252.771C358.065 254.107 358.216 255.267 358.265 256.242C358.313 257.221 358.255 258.026 358.089 258.654C357.265 261.759 355.813 263.865 353.741 264.977C351.665 266.088 348.974 266.205 345.664 265.323C342.559 264.499 340.21 262.647 338.606 259.766C337.007 256.885 336.632 253.848 337.48 250.656C337.807 249.432 338.528 248.106 339.644 246.678C340.99 244.952 342.213 244.236 343.31 244.528C343.768 244.65 344.134 244.904 344.397 245.294C344.875 245.557 345.489 245.83 346.239 246.103C346.99 246.381 347.887 246.654 348.92 246.927C351.357 247.575 353.156 247.867 354.321 247.804C354.448 247.794 355.189 247.677 356.549 247.443C357.777 247.234 358.469 247.146 358.625 247.19C359.303 247.37 359.795 247.78 360.102 248.418C360.409 249.057 360.473 249.72 360.292 250.402L360.282 250.407ZM345.966 251.733C345.552 251.621 345.089 251.47 344.567 251.27C344.051 251.07 343.476 250.826 342.852 250.534C342.657 250.758 342.501 250.963 342.389 251.143C342.276 251.328 342.203 251.489 342.164 251.63C341.696 253.38 341.979 255.096 342.998 256.778C344.021 258.455 345.435 259.537 347.239 260.014C348.964 260.473 350.344 260.507 351.377 260.122C352.41 259.732 353.093 258.923 353.419 257.684C353.634 256.885 353.702 256.095 353.624 255.306C353.551 254.521 353.341 253.746 352.99 252.976C349.822 252.547 347.477 252.132 345.957 251.728L345.966 251.733Z" fill="black"/>
<path d="M337.237 234.721C337.125 235.569 336.744 236.261 336.096 236.807C335.448 237.353 334.712 237.572 333.893 237.465C333.074 237.358 332.421 236.958 331.933 236.261C331.446 235.564 331.261 234.794 331.368 233.951C331.48 233.108 331.86 232.41 332.508 231.874C333.157 231.333 333.893 231.119 334.712 231.226C335.531 231.333 336.184 231.733 336.671 232.42C337.159 233.108 337.349 233.878 337.237 234.721ZM351.991 234.94C352.747 235.038 353.956 235.174 355.628 235.345C357.3 235.515 358.513 235.652 359.264 235.749C360.029 235.852 360.629 236.188 361.058 236.768C361.487 237.348 361.648 238.036 361.545 238.83C361.443 239.625 361.107 240.244 360.546 240.697C359.985 241.145 359.318 241.321 358.552 241.223C357.802 241.126 356.588 240.989 354.916 240.819C353.244 240.648 352.03 240.512 351.28 240.414C350.105 240.258 348.638 240 346.883 239.634C345.128 239.269 343.666 239.01 342.486 238.854C341.721 238.752 341.121 238.416 340.693 237.836C340.264 237.256 340.103 236.568 340.205 235.774C340.307 234.979 340.644 234.36 341.204 233.907C341.765 233.454 342.433 233.283 343.198 233.38C344.373 233.536 345.84 233.795 347.595 234.16C349.35 234.526 350.812 234.784 351.991 234.935V234.94Z" fill="black"/>
<path d="M344.753 223.408C342.355 221.477 341.121 219.61 341.058 217.812C340.99 215.76 341.716 214.229 343.242 213.215C342.496 212.425 341.926 211.548 341.531 210.573C341.136 209.598 340.921 208.541 340.882 207.395C340.795 204.782 342.033 202.969 344.597 201.946C345.123 201.741 346.917 201.395 349.983 200.902C352.128 200.454 355.71 199.854 360.721 199.094C361.477 199.016 362.115 199.255 362.627 199.811C363.139 200.366 363.412 201.029 363.436 201.804C363.49 203.335 362.759 204.261 361.253 204.583C359.888 204.87 357.958 205.182 355.462 205.523C352.727 205.884 350.792 206.172 349.652 206.381C347.278 206.825 346.103 207.322 346.122 207.883C346.132 208.19 346.464 208.877 347.112 209.949C347.76 211.022 348.316 211.802 348.774 212.294C350.29 212.24 352.469 211.987 355.311 211.529C358.216 211.056 360.395 210.793 361.842 210.744C362.603 210.719 363.246 210.958 363.768 211.46C364.294 211.962 364.567 212.611 364.596 213.41C364.626 214.21 364.392 214.877 363.904 215.413C363.417 215.95 362.793 216.232 362.033 216.257C360.512 216.31 358.284 216.549 355.345 216.978C352.406 217.407 350.178 217.646 348.657 217.7C347.804 217.729 347.127 217.826 346.625 217.992C347.57 219.508 349.11 221.009 351.241 222.496C351.338 222.559 351.479 222.667 351.67 222.823C354.36 222.784 356.476 222.74 358.006 222.686C358.382 222.671 358.884 222.671 359.517 222.671C360.151 222.671 360.619 222.671 360.926 222.662C361.647 222.637 362.223 222.91 362.656 223.481C363.061 224.002 363.275 224.655 363.305 225.44C363.344 226.571 362.876 227.356 361.906 227.79C361.248 228.092 360.195 228.267 358.742 228.316L351.309 228.574C350.641 228.599 349.666 228.657 348.384 228.755C347.102 228.852 346.127 228.911 345.46 228.935C344.275 228.974 343.193 228.799 342.223 228.404C341.004 227.926 340.38 227.214 340.351 226.269C340.327 225.523 340.59 224.845 341.151 224.241C341.711 223.637 342.335 223.32 343.027 223.295C342.749 223.305 343.32 223.344 344.753 223.417V223.408Z" fill="black"/>
<path d="M360.556 185.782C360.756 186.655 360.653 187.469 360.258 188.229C359.864 188.989 359.327 189.443 358.655 189.599C357.967 189.755 357.275 189.579 356.578 189.067C355.881 188.556 355.433 187.863 355.238 186.996C355.028 186.075 355.116 185.256 355.501 184.539C355.886 183.823 356.456 183.379 357.207 183.208C357.894 183.052 358.577 183.228 359.254 183.73C359.932 184.232 360.366 184.919 360.561 185.792L360.556 185.782Z" fill="black"/>
</svg>
